/* XPM */
static char *c333433f2b2e4711d64ba72338f9edc7etGXDpKdv2E2AmMD[] = {
/* columns rows colors chars-per-pixel */
"16 18 3 1 ",
"  c None",
". c #393939",
"X c white",
/* pixels */
"         X      ",
"        X.X     ",
"       XX.X     ",
"      X....X    ",
"    XX.X.....X  ",
"   X..XX....X.X ",
"  X.........XX.X",
" X...........X.X",
"X............X.X",
"X............X.X",
" X...XXX.X...X.X",
"  XXX X......X.X",
"     X.......X.X",
"    .........X.X",
"   X.........X.X",
"  X...........X ",
" X.............X",
" XXXXXXXXXXXXXXX"
};
